# xmcd CD database file
#
# Track frame offsets:
#	150
#	31057
#	46224
#	58257
#	81477
#	98385
#	115335
#	133556
#	145708
#	150312
#	175812
#	192442
#
# Disc length: 2825 seconds
#
# Revision: 0
# Processed by: cddbd v1.5.2PL0 Copyright (c) Steve Scherf et al.
# Submitted via: CDex 1.51
#
DISCID=960b070c
DTITLE=Eric Clapton - Eric Clapton and The Yardbirds - disc 2
DYEAR=2006
DGENRE=Blues
TTITLE0=Smokestack Lightning (Live)
TTITLE1=Highway 69 (Live)
TTITLE2=Got Love If You Want It (Live)
TTITLE3=Five Long Years (Live)
TTITLE4=Louise (Live)
TTITLE5=My Little Cabin (Live)
TTITLE6=Mister Downchild
TTITLE7=Pounds and Stomps
TTITLE8=Slow Walk
TTITLE9=My Girl Sloopy
TTITLE10=I Ain't Done Wrong
TTITLE11=New York City Blues
EXTD=YEAR: 2006
EXTT0=
EXTT1=
EXTT2=
EXTT3=
EXTT4=
EXTT5=
EXTT6=
EXTT7=
EXTT8=
EXTT9=
EXTT10=
EXTT11=
PLAYORDER=
